<svg width="59" height="59" viewBox="0 0 59 59" fill="none" xmlns="http://www.w3.org/2000/svg">
<g clip-path="url(#clip0_29_2363)">
<path d="M50.9858 25.3504L40.415 10.18C39.2821 8.55448 37.7729 7.22695 36.0163 6.31051C34.2596 5.39407 32.3074 4.91588 30.326 4.91669H20.8958C18.4031 4.92513 15.9713 5.68764 13.9201 7.10398C11.8689 8.52032 10.2942 10.5242 9.40312 12.8522L4.30946 26.2845C2.9823 27.1857 1.89576 28.3978 1.14461 29.8153C0.393451 31.2328 0.000492602 32.8125 0 34.4167L0 38.1042C0.00201792 39.5204 0.492091 40.8926 1.38766 41.9897C2.28322 43.0867 3.52955 43.8416 4.91667 44.1271V45.4792C4.91667 47.7612 5.82317 49.9497 7.43677 51.5633C9.05036 53.1768 11.2389 54.0834 13.5208 54.0834C15.8028 54.0834 17.9913 53.1768 19.6049 51.5633C21.2185 49.9497 22.125 47.7612 22.125 45.4792V44.25H36.875V45.4792C36.875 47.7612 37.7815 49.9497 39.3951 51.5633C41.0087 53.1768 43.1972 54.0834 45.4792 54.0834C47.7611 54.0834 49.9496 53.1768 51.5632 51.5633C53.1768 49.9497 54.0833 47.7612 54.0833 45.4792V44.1271C55.4704 43.8416 56.7168 43.0867 57.6123 41.9897C58.5079 40.8926 58.998 39.5204 59 38.1042V36.875C58.9964 34.3666 58.2272 31.919 56.795 29.8595C55.3629 27.8001 53.3362 26.2269 50.9858 25.3504ZM36.3833 12.9899L44.4565 24.5834H27.0417V9.83335H30.326C31.5154 9.83207 32.6874 10.1185 33.7421 10.6681C34.7969 11.2177 35.703 12.0143 36.3833 12.9899ZM14.0125 14.5951C14.5462 13.2001 15.4891 11.999 16.7174 11.1492C17.9457 10.2995 19.4022 9.8408 20.8958 9.83335H22.125V24.5834H10.2119L14.0125 14.5951ZM17.2083 45.4792C17.2083 46.4572 16.8198 47.3951 16.1283 48.0866C15.4367 48.7782 14.4988 49.1667 13.5208 49.1667C12.5428 49.1667 11.6049 48.7782 10.9134 48.0866C10.2218 47.3951 9.83333 46.4572 9.83333 45.4792V44.25H17.2083V45.4792ZM45.4792 49.1667C44.5012 49.1667 43.5633 48.7782 42.8717 48.0866C42.1802 47.3951 41.7917 46.4572 41.7917 45.4792V44.25H49.1667V45.4792C49.1667 46.4572 48.7782 47.3951 48.0866 48.0866C47.3951 48.7782 46.4571 49.1667 45.4792 49.1667ZM54.0833 38.1042C54.0833 38.4302 53.9538 38.7428 53.7233 38.9733C53.4928 39.2039 53.1802 39.3334 52.8542 39.3334H6.14583C5.81984 39.3334 5.50719 39.2039 5.27668 38.9733C5.04617 38.7428 4.91667 38.4302 4.91667 38.1042V34.4167C4.91667 33.1127 5.43467 31.8621 6.35672 30.9401C7.27878 30.018 8.52935 29.5 9.83333 29.5H46.7083C48.6643 29.5 50.5402 30.277 51.9232 31.6601C53.3063 33.0432 54.0833 34.9191 54.0833 36.875V38.1042Z" fill="#3563E9"/>
</g>
<defs>
<clipPath id="clip0_29_2363">
<rect width="59" height="59" fill="white"/>
</clipPath>
</defs>
</svg>
