<svg width="24" height="24" viewBox="0 0 24 24" fill="none" xmlns="http://www.w3.org/2000/svg">
<path fill-rule="evenodd" clip-rule="evenodd" d="M19.8552 6.052C17.89 4.085 15.2772 3.00088 12.4939 3C6.75825 3 2.09013 7.66725 2.0875 13.4055C2.08663 15.2395 2.56612 17.0297 3.477 18.6082L2 24L7.516 22.5527C9.03587 23.3822 10.7474 23.8189 12.4886 23.8197H12.493C18.2277 23.8197 22.8967 19.1516 22.8994 13.4134C22.9011 10.6335 21.8196 8.01813 19.8552 6.052ZM12.4939 22.0619H12.4904C10.9381 22.0619 9.4165 21.6445 8.08825 20.8561L7.77237 20.6689L4.499 21.5273L5.37312 18.3352L5.1675 18.008C4.30125 16.6308 3.8445 15.0391 3.84537 13.4055C3.84712 8.63675 7.72775 4.757 12.4982 4.757C14.8082 4.757 16.98 5.65825 18.6127 7.29275C20.2455 8.92812 21.1441 11.1007 21.1432 13.4116C21.1406 18.1821 17.2609 22.0619 12.4939 22.0619ZM17.2381 15.5842C16.9782 15.4539 15.6999 14.8247 15.461 14.7381C15.223 14.6515 15.0497 14.6077 14.8756 14.8676C14.7015 15.1275 14.2045 15.7137 14.0522 15.8879C13.9009 16.0611 13.7486 16.083 13.4887 15.9526C13.2289 15.8223 12.3906 15.5484 11.3975 14.662C10.6249 13.9725 10.1025 13.1211 9.95112 12.8604C9.79975 12.5996 9.93537 12.4596 10.0649 12.3301C10.1821 12.2137 10.3247 12.0265 10.4551 11.8743C10.5864 11.7238 10.6292 11.6153 10.7167 11.4411C10.8034 11.2679 10.7605 11.1156 10.6949 10.9853C10.6292 10.8558 10.1095 9.57562 9.89337 9.055C9.6825 8.5475 9.46812 8.61662 9.308 8.60875C9.15662 8.60087 8.98337 8.6 8.80925 8.6C8.636 8.6 8.35425 8.66475 8.11625 8.9255C7.87825 9.18625 7.20625 9.81538 7.20625 11.0946C7.20625 12.3748 8.13812 13.6111 8.26762 13.7844C8.39712 13.9576 10.1007 16.5844 12.7091 17.7105C13.3295 17.9783 13.8142 18.1384 14.1914 18.2582C14.8144 18.456 15.3814 18.428 15.8294 18.3615C16.329 18.2871 17.3676 17.7324 17.5846 17.1251C17.8016 16.5179 17.8016 15.9964 17.736 15.8888C17.6713 15.7794 17.498 15.7146 17.2381 15.5842Z" fill="#3563E9"/>
</svg>
