<svg width="49" height="49" viewBox="0 0 49 49" fill="none" xmlns="http://www.w3.org/2000/svg">
<g clip-path="url(#clip0_29_2361)">
<path d="M44.9167 20.4167V13.1075C44.9166 12.63 44.8893 12.1528 44.835 11.6784C44.5622 9.18085 43.5196 6.82996 41.8516 4.95123C40.1836 3.0725 37.9726 1.75891 35.525 1.19236C28.2602 -0.389966 20.7398 -0.389966 13.475 1.19236C11.0275 1.75919 8.81673 3.07286 7.14875 4.95154C5.48077 6.83021 4.43807 9.18096 4.165 11.6784C4.1107 12.1528 4.08344 12.63 4.08333 13.1075V20.4167C3.00037 20.4167 1.96175 20.8469 1.19598 21.6127C0.430207 22.3784 0 23.4171 0 24.5L0 26.5417C0 27.6247 0.430207 28.6633 1.19598 29.429C1.96175 30.1948 3.00037 30.625 4.08333 30.625V34.7084C4.08238 36.2933 4.45094 37.8567 5.15976 39.2743C5.86858 40.6919 6.89813 41.9248 8.16667 42.875V43.8959C8.16539 45.1616 8.6345 46.3827 9.4829 47.3221C10.3313 48.2615 11.4985 48.8521 12.7579 48.9793C14.0172 49.1065 15.279 48.7612 16.2981 48.0105C17.3172 47.2598 18.021 46.1572 18.2729 44.9167H30.7271C30.979 46.1572 31.6828 47.2598 32.7019 48.0105C33.721 48.7612 34.9828 49.1065 36.2421 48.9793C37.5015 48.8521 38.6687 48.2615 39.5171 47.3221C40.3655 46.3827 40.8346 45.1616 40.8333 43.8959V42.875C42.1019 41.9248 43.1314 40.6919 43.8402 39.2743C44.5491 37.8567 44.9176 36.2933 44.9167 34.7084V30.625C45.9996 30.625 47.0382 30.1948 47.804 29.429C48.5698 28.6633 49 27.6247 49 26.5417V24.5C49 23.4171 48.5698 22.3784 47.804 21.6127C47.0382 20.8469 45.9996 20.4167 44.9167 20.4167ZM8.16667 26.5417V14.2917H40.8333V26.5417H8.16667ZM14.3978 5.16953C21.0575 3.72081 27.9507 3.72081 34.6103 5.16953C35.9042 5.47105 37.1029 6.08936 38.0986 6.9689C39.0943 7.84843 39.8558 8.9616 40.3148 10.2084H32.6667C32.6667 9.66687 32.4516 9.14757 32.0687 8.76468C31.6858 8.38179 31.1665 8.16669 30.625 8.16669H18.375C17.8335 8.16669 17.3142 8.38179 16.9313 8.76468C16.5484 9.14757 16.3333 9.66687 16.3333 10.2084H8.68525C9.14493 8.96062 9.90771 7.84681 10.9049 6.96721C11.9021 6.0876 13.1025 5.46983 14.3978 5.16953ZM34.7083 40.8334H14.2917C12.6672 40.8334 11.1093 40.188 9.96064 39.0394C8.81198 37.8907 8.16667 36.3328 8.16667 34.7084V30.625H12.25V32.6667C12.25 33.2082 12.4651 33.7275 12.848 34.1104C13.2309 34.4933 13.7502 34.7084 14.2917 34.7084C14.8332 34.7084 15.3525 34.4933 15.7353 34.1104C16.1182 33.7275 16.3333 33.2082 16.3333 32.6667V30.625H32.6667V32.6667C32.6667 33.2082 32.8818 33.7275 33.2647 34.1104C33.6475 34.4933 34.1669 34.7084 34.7083 34.7084C35.2498 34.7084 35.7691 34.4933 36.152 34.1104C36.5349 33.7275 36.75 33.2082 36.75 32.6667V30.625H40.8333V34.7084C40.8333 36.3328 40.188 37.8907 39.0394 39.0394C37.8907 40.188 36.3328 40.8334 34.7083 40.8334Z" fill="#3563E9"/>
</g>
<defs>
<clipPath id="clip0_29_2361">
<rect width="49" height="49" fill="white"/>
</clipPath>
</defs>
</svg>
