<svg width="48" height="48" viewBox="0 0 48 48" fill="none" xmlns="http://www.w3.org/2000/svg">
<g clip-path="url(#clip0_29_2357)">
<path d="M10 26C8.02219 26 6.08879 26.5865 4.4443 27.6853C2.79981 28.7841 1.51809 30.3459 0.761209 32.1732C0.00433284 34.0004 -0.193701 36.0111 0.192152 37.9509C0.578004 39.8907 1.53041 41.6725 2.92894 43.0711C4.32746 44.4696 6.10929 45.422 8.0491 45.8079C9.98891 46.1937 11.9996 45.9957 13.8268 45.2388C15.6541 44.4819 17.2159 43.2002 18.3147 41.5557C19.4135 39.9112 20 37.9778 20 36C19.9968 33.3488 18.9422 30.8071 17.0676 28.9324C15.1929 27.0578 12.6512 26.0032 10 26ZM10 42C8.81332 42 7.65328 41.6481 6.66658 40.9888C5.67989 40.3295 4.91085 39.3925 4.45673 38.2961C4.0026 37.1997 3.88378 35.9933 4.11529 34.8295C4.3468 33.6656 4.91825 32.5965 5.75736 31.7574C6.59648 30.9182 7.66558 30.3468 8.82946 30.1153C9.99335 29.8838 11.1997 30.0026 12.2961 30.4567C13.3925 30.9109 14.3295 31.6799 14.9888 32.6666C15.6481 33.6533 16 34.8133 16 36C16 37.5913 15.3679 39.1174 14.2426 40.2426C13.1174 41.3679 11.5913 42 10 42ZM38 26C36.0222 26 34.0888 26.5865 32.4443 27.6853C30.7998 28.7841 29.5181 30.3459 28.7612 32.1732C28.0043 34.0004 27.8063 36.0111 28.1922 37.9509C28.578 39.8907 29.5304 41.6725 30.9289 43.0711C32.3275 44.4696 34.1093 45.422 36.0491 45.8079C37.9889 46.1937 39.9996 45.9957 41.8268 45.2388C43.6541 44.4819 45.2159 43.2002 46.3147 41.5557C47.4135 39.9112 48 37.9778 48 36C47.9968 33.3488 46.9422 30.8071 45.0676 28.9324C43.1929 27.0578 40.6512 26.0032 38 26ZM38 42C36.8133 42 35.6533 41.6481 34.6666 40.9888C33.6799 40.3295 32.9109 39.3925 32.4567 38.2961C32.0026 37.1997 31.8838 35.9933 32.1153 34.8295C32.3468 33.6656 32.9183 32.5965 33.7574 31.7574C34.5965 30.9182 35.6656 30.3468 36.8295 30.1153C37.9934 29.8838 39.1998 30.0026 40.2961 30.4567C41.3925 30.9109 42.3295 31.6799 42.9888 32.6666C43.6481 33.6533 44 34.8133 44 36C44 37.5913 43.3679 39.1174 42.2426 40.2426C41.1174 41.3679 39.5913 42 38 42ZM20.728 22.554C20.5193 22.3761 20.3499 22.1566 20.2307 21.9096C20.1114 21.6627 20.0448 21.3936 20.0352 21.1195C20.0256 20.8454 20.0732 20.5723 20.1749 20.3176C20.2766 20.0629 20.4303 19.8321 20.626 19.64C20.964 19.32 25.932 14.76 25.932 14.76L32.586 21.414C32.9632 21.7783 33.4684 21.9799 33.9928 21.9753C34.5172 21.9708 35.0188 21.7605 35.3896 21.3896C35.7605 21.0188 35.9708 20.5172 35.9754 19.9928C35.9799 19.4684 35.7783 18.9632 35.414 18.586L27.414 10.586C27.3376 10.5077 27.2546 10.4361 27.166 10.372C25.0239 8.85554 22.4704 8.0281 19.846 8C17.042 8 10 10.38 10 16C10 17.5913 10.6321 19.1174 11.7574 20.2426C12.8826 21.3679 14.4087 22 16 22C16.048 22 16.092 21.99 16.138 21.988C16.3537 23.385 17.0573 24.6604 18.124 25.588L22 28.918V36C22 36.5304 22.2107 37.0391 22.5858 37.4142C22.9609 37.7893 23.4696 38 24 38C24.5304 38 25.0391 37.7893 25.4142 37.4142C25.7893 37.0391 26 36.5304 26 36V28C26 27.7116 25.9376 27.4266 25.8171 27.1646C25.6966 26.9026 25.5209 26.6697 25.302 26.482L20.728 22.554ZM14 16C14 13.572 18.344 12 19.846 12C20.7574 12.0048 21.6619 12.1582 22.524 12.454C22.524 12.454 17.892 16.722 17.838 16.774C17.076 17.498 16.45 18 16 18C15.4696 18 14.9609 17.7893 14.5858 17.4142C14.2107 17.0391 14 16.5304 14 16ZM28 5C28 4.0111 28.2933 3.0444 28.8427 2.22215C29.3921 1.39991 30.173 0.759043 31.0866 0.380605C32.0002 0.00216642 33.0056 -0.0968503 33.9755 0.0960759C34.9454 0.289002 35.8363 0.765206 36.5355 1.46447C37.2348 2.16373 37.711 3.05465 37.9039 4.02455C38.0969 4.99446 37.9978 5.99979 37.6194 6.91342C37.241 7.82705 36.6001 8.60794 35.7779 9.15735C34.9556 9.70676 33.9889 10 33 10C31.6739 10 30.4022 9.47322 29.4645 8.53554C28.5268 7.59785 28 6.32609 28 5Z" fill="#3563E9"/>
</g>
<defs>
<clipPath id="clip0_29_2357">
<rect width="48" height="48" fill="white"/>
</clipPath>
</defs>
</svg>
