<svg width="49" height="49" viewBox="0 0 49 49" fill="none" xmlns="http://www.w3.org/2000/svg">
<g clip-path="url(#clip0_29_2365)">
<path d="M22.4583 34.7081H22.2542C21.9943 33.4281 21.4888 32.2106 20.7658 31.1229L20.9148 30.9739C21.2867 30.5888 21.4925 30.0731 21.4879 29.5378C21.4832 29.0024 21.2685 28.4904 20.89 28.1118C20.5114 27.7333 19.9993 27.5186 19.464 27.5139C18.9287 27.5093 18.413 27.715 18.0279 28.087L17.8789 28.236C16.7907 27.512 15.5725 27.0058 14.2917 26.7456V26.5414C14.2917 25.9999 14.0766 25.4806 13.6937 25.0977C13.3108 24.7149 12.7915 24.4997 12.25 24.4997C11.7085 24.4997 11.1892 24.7149 10.8063 25.0977C10.4234 25.4806 10.2083 25.9999 10.2083 26.5414V26.7456C8.92836 27.0055 7.71087 27.5109 6.62317 28.234L6.47413 28.0849C6.08906 27.713 5.57333 27.5072 5.03801 27.5119C4.5027 27.5165 3.99062 27.7312 3.61208 28.1098C3.23354 28.4883 3.01882 29.0004 3.01417 29.5357C3.00951 30.071 3.2153 30.5868 3.58721 30.9718L3.73625 31.1209C3.01225 32.209 2.5061 33.4273 2.24583 34.7081H2.04167C1.50018 34.7081 0.980877 34.9232 0.59799 35.3061C0.215104 35.689 0 36.2083 0 36.7498C0 37.2912 0.215104 37.8105 0.59799 38.1934C0.980877 38.5763 1.50018 38.7914 2.04167 38.7914H2.24583C2.50573 40.0714 3.01117 41.2889 3.73421 42.3766L3.58517 42.5256C3.21326 42.9107 3.00747 43.4264 3.01212 43.9617C3.01678 44.4971 3.2315 45.0091 3.61004 45.3877C3.98858 45.7662 4.50065 45.9809 5.03597 45.9856C5.57129 45.9902 6.08702 45.7845 6.47208 45.4125L6.62113 45.2635C7.70928 45.9875 8.9275 46.4936 10.2083 46.7539V46.9581C10.2083 47.4996 10.4234 48.0189 10.8063 48.4018C11.1892 48.7846 11.7085 48.9998 12.25 48.9998C12.7915 48.9998 13.3108 48.7846 13.6937 48.4018C14.0766 48.0189 14.2917 47.4996 14.2917 46.9581V46.7539C15.5716 46.494 16.7891 45.9886 17.8768 45.2655L18.0259 45.4146C18.4109 45.7865 18.9267 45.9923 19.462 45.9876C19.9973 45.983 20.5094 45.7683 20.8879 45.3897C21.2665 45.0112 21.4812 44.4991 21.4858 43.9638C21.4905 43.4285 21.2847 42.9127 20.9128 42.5277L20.7638 42.3786C21.4878 41.2905 21.9939 40.0723 22.2542 38.7914H22.4583C22.9998 38.7914 23.5191 38.5763 23.902 38.1934C24.2849 37.8105 24.5 37.2912 24.5 36.7498C24.5 36.2083 24.2849 35.689 23.902 35.3061C23.5191 34.9232 22.9998 34.7081 22.4583 34.7081ZM12.25 42.8748C10.6255 42.8748 9.06763 42.2294 7.91897 41.0808C6.77031 39.9321 6.125 38.3742 6.125 36.7498C6.125 35.1253 6.77031 33.5674 7.91897 32.4187C9.06763 31.2701 10.6255 30.6247 12.25 30.6247C13.8745 30.6247 15.4324 31.2701 16.581 32.4187C17.7297 33.5674 18.375 35.1253 18.375 36.7498C18.375 38.3742 17.7297 39.9321 16.581 41.0808C15.4324 42.2294 13.8745 42.8748 12.25 42.8748ZM49 24.4997C49 22.3338 48.1396 20.2566 46.608 18.725C45.0765 17.1935 42.9993 16.3331 40.8333 16.3331V12.2497C40.8333 11.7083 40.6182 11.189 40.2353 10.8061C39.8525 10.4232 39.3332 10.2081 38.7917 10.2081C38.2502 10.2081 37.7309 10.4232 37.348 10.8061C36.9651 11.189 36.75 11.7083 36.75 12.2497V16.3331H31.7561L24.547 4.79766C23.6335 3.32556 22.3584 2.1118 20.8431 1.27196C19.3278 0.432108 17.6228 -0.00586283 15.8903 -0.000251936H12.25C10.6255 -0.000251936 9.06763 0.645059 7.91897 1.79372C6.77031 2.94238 6.125 4.5003 6.125 6.12475V16.3331C4.50055 16.3331 2.94263 16.9784 1.79397 18.1271C0.645311 19.2757 0 20.8336 0 22.4581C0 22.9996 0.215104 23.5189 0.59799 23.9018C0.980877 24.2846 1.50018 24.4997 2.04167 24.4997C2.58315 24.4997 3.10246 24.2846 3.48534 23.9018C3.86823 23.5189 4.08333 22.9996 4.08333 22.4581C4.08333 21.9166 4.29844 21.3973 4.68132 21.0144C5.06421 20.6315 5.58352 20.4164 6.125 20.4164H40.8333C41.5879 20.4253 42.3255 20.6419 42.9651 21.0424C43.6047 21.4429 44.1216 22.0119 44.4591 22.6869C44.7966 23.3619 44.9416 24.1168 44.8782 24.8687C44.8149 25.6207 44.5456 26.3407 44.1 26.9497L40.9252 31.1821C27.1868 27.0988 23.4506 48.128 37.7708 48.9998C39.5665 48.9781 41.317 48.4332 42.8077 47.4318C44.2984 46.4304 45.4647 45.016 46.1638 43.3618C46.8628 41.7076 47.0642 39.8854 46.7434 38.1184C46.4225 36.3515 45.5933 34.7165 44.3573 33.4137L47.3667 29.3997C48.424 27.9846 48.9968 26.2662 49 24.4997ZM10.2083 6.12475C10.2083 5.58326 10.4234 5.06396 10.8063 4.68107C11.1892 4.29818 11.7085 4.08308 12.25 4.08308H15.8903C16.9298 4.07979 17.9528 4.34261 18.8619 4.84651C19.7711 5.35041 20.5362 6.07863 21.0843 6.96183L26.95 16.3331H10.2083V6.12475ZM37.7708 44.9164C36.4171 44.9164 35.1189 44.3787 34.1616 43.4214C33.2044 42.4642 32.6667 41.166 32.6667 39.8123C32.6667 38.4585 33.2044 37.1603 34.1616 36.2031C35.1189 35.2458 36.4171 34.7081 37.7708 34.7081C39.1245 34.7081 40.4228 35.2458 41.38 36.2031C42.3372 37.1603 42.875 38.4585 42.875 39.8123C42.875 41.166 42.3372 42.4642 41.38 43.4214C40.4228 44.3787 39.1245 44.9164 37.7708 44.9164Z" fill="#3563E9"/>
</g>
<defs>
<clipPath id="clip0_29_2365">
<rect width="49" height="49" fill="white"/>
</clipPath>
</defs>
</svg>
