<svg width="56" height="24" viewBox="0 0 56 24" fill="none" xmlns="http://www.w3.org/2000/svg">
<path d="M11.0724 24L0.611363 0.734999H6.08936L13.2834 17.433L20.4774 0.734999H25.7244L15.2634 24H11.0724ZM27.4919 24V0.734999H32.6069V24H27.4919ZM37.2566 24V0.734999H47.8826C50.4786 0.734999 52.4806 1.395 53.8886 2.715C55.2966 4.013 56.0006 5.828 56.0006 8.16C56.0006 10.492 55.2966 12.318 53.8886 13.638C52.4806 14.958 50.4786 15.618 47.8826 15.618H42.3716V24H37.2566ZM42.3716 11.658H47.0246C49.7306 11.658 51.0836 10.492 51.0836 8.16C51.0836 5.872 49.7306 4.728 47.0246 4.728H42.3716V11.658Z" fill="#3563E9"/>
</svg>
