<svg width="501" height="83" fill="none" xmlns="http://www.w3.org/2000/svg"><path d="M11.54 13.34l.995-.82 1.172.117c.664 0 1.23-.176 1.7-.528.468-.351.84-.546 1.113-.586.312-.039.664-.234 1.054-.585.43-.352 1.035-.586 1.817-.704.78-.156 1.347-.41 1.699-.761.351-.352.742-.567 1.172-.645.468-.117.996-.293 1.582-.527l5.332-1.64c.078 0 .293.077.644.234h.235c.468 0 .918-.176 1.347-.528a2.485 2.485 0 011.641-.586c.39 0 1.152-.234 2.285-.703l.352.352c.625-.703 1.152-1.055 1.582-1.055h.351c.078 0 .43.078 1.055.234.977-.312 1.777-.468 2.402-.468l1.348-.118c.078 0 .195.04.352.118.312-.352.742-.567 1.289-.645h.644l2.402-.586.704.235c.468-.391 1.191-.586 2.168-.586h.586l.585.117c.079 0 .43-.117 1.055-.352.664-.234 2.246-.351 4.746-.351l1.524.234c.976-.39 1.504-.586 1.582-.586l1.64.352.645-.235h.234c.078 0 .274.078.586.235h.117l4.22-.586c.077 0 .234.039.468.117.312-.274.547-.41.703-.41l1.113.293c.313 0 .86-.215 1.64-.645l.352.352 3.985-.469 1.465.117 1.289-.234c1.289 0 2.246.351 2.87 1.054.665.665.997 1.348.997 2.051l.234 1.817-.351.996-.118 1.172c-.195.468-.488.78-.878.937 0 .078-.176.176-.528.293a3.131 3.131 0 00-1.054.469c-.352.234-1.504.351-3.457.351-.977 0-1.602-.293-1.875-.878-.274-.625-.567-.977-.88-1.055L70.954 6.66c-.078-.078-.312-.117-.703-.117h-.469l-2.402.234c-.078 0-.293-.039-.645-.117-.507.235-.78.352-.82.352l-4.336-.235-1.758.118-1.23-.235c-.156 0-.43.059-.82.176-.391.117-1.211.215-2.461.293-1.25.078-1.875.469-1.875 1.172 0 .43.156.898.468 1.406.352.508.528.918.528 1.23-.586.82-.88 1.348-.88 1.583-.155.117-.429.37-.82.761-.39.39-1.113 1.016-2.167 1.875-1.055.82-1.778 1.582-2.169 2.285-.39.704-.859 1.055-1.406 1.055-.703.664-1.191 1.27-1.465 1.817l-.468.468c-.078.078-.117.254-.117.528 0 .234-.118.468-.352.703l-.527 1.406c-.274.117-1.075 1.133-2.403 3.047l-.703.351-.703.82h-.82c-.352 0-.528.235-.528.704l.235 1.7c-.586.507-1.055 1.19-1.407 2.05l-.703 1.172c-.82.82-1.23 1.27-1.23 1.347 0 .196-.39 1.035-1.172 2.52l-.117.586c0 .664-1.367 2.578-4.102 5.742-.39.742-.625 1.875-.703 3.398-1.172 2.305-1.973 3.418-2.402 3.34-.078 1.485-.332 2.696-.762 3.633-.39.938-.918 2.324-1.582 4.16-.625 1.797-1.289 3.086-1.992 3.867l-.235.47a6.16 6.16 0 01-.585.937c-.079 1.054-.45 2.734-1.114 5.039l-.351 2.52-1.172 3.28a1.56 1.56 0 00-.176.704c0 .156.117.468.352.937.273.43.41.84.41 1.23 0 .547-.098.997-.293 1.348-.195.313-.293.743-.293 1.29 0 1.21-.645 2.011-1.934 2.402h-.469l-1.23.117c-1.64 0-3.125-.781-4.453-2.344-1.328-1.562-1.992-3.71-1.992-6.445 0-.156.117-.742.351-1.758.235-1.055.371-1.738.41-2.05.04-.313.137-.626.293-.938.157-.352.235-.84.235-1.465 0-1.914.469-3.574 1.406-4.98.977-1.407 1.621-2.422 1.934-3.047.078-.274.214-.45.41-.528-.117-.312-.176-.703-.176-1.172 0-1.133.488-2.05 1.465-2.754a5.26 5.26 0 01.41-1.054c.195-.43.605-1.426 1.23-2.989.625-1.601 1.446-2.539 2.461-2.812-.039-.078.196-.39.703-.938l-.234-2.05c0-.313.352-.84 1.055-1.582l.996-1.641c.156-.664.664-1.27 1.523-1.816.235-.391.489-.625.762-.703.04-.157.195-.645.469-1.465.312-.82.937-1.836 1.875-3.047a53.397 53.397 0 002.754-3.867c.898-1.329 1.699-2.012 2.402-2.051.742-.04 1.152-.45 1.23-1.23l.352-2.169c1.133-.976 1.816-1.66 2.05-2.05l.821-.938c.156-.547.352-.898.586-1.055.274-.195.606-.566.996-1.113a6.513 6.513 0 011.465-1.465c.508-1.601 1.66-2.988 3.457-4.16l.938-.996c.664-.938 1.21-1.563 1.64-1.875.43-.352.742-.8.938-1.348.234-.546.664-.957 1.289-1.23.625-.274.937-.586.937-.938 0-.156-.156-.234-.468-.234-.313 0-.84.117-1.583.352h-.468l-1.055.234h-.352l-.996-.234c-.703.234-1.25.351-1.64.351-.078.078-.332.254-.762.527h-1.29l-.703.704-.527.117-1.524-.235c-.469 0-1.035.235-1.7.704 0 .078-.644.214-1.933.41-1.25.195-2.441.566-3.574 1.113-1.133.508-1.816.762-2.05.762l-1.055-.235h-.118c-.507 0-.976.254-1.406.762-.43.508-1.055.82-1.875.938h-.703c-.586 0-1.387.234-2.402.703-.977.468-1.504.703-1.582.703l-1.055-.117c-.469.312-.879.527-1.23.644a3.089 3.089 0 00-.938.586c-.313.235-.625.41-.938.527-.312.118-.683.332-1.113.645-.39.313-.703.469-.937.469h-.235l-.703-.117c-.273 0-.625.253-1.054.761-.43.469-.84.762-1.23.88a3.569 3.569 0 00-1.056.585 2.013 2.013 0 01-.996.41c-.195.196-.468.625-.82 1.29-.352.663-.8 1.25-1.348 1.757-.547.469-.918.84-1.113 1.113-.156.274-.312.41-.469.41-1.914 0-2.87-1.19-2.87-3.574l1.171-2.52c.82-1.991 2.07-3.202 3.75-3.632.43 0 1.543-.43 3.34-1.29l2.285-.995zm58.24 17.402l-.351-2.285v-.352c0-1.835.625-2.851 1.875-3.046.273-.04 1.093-.293 2.46-.762.704.156 1.426.781 2.169 1.875.78 1.055 1.172 1.992 1.172 2.812 0 .078-.06.254-.176.528-.118.273-.196.8-.235 1.582-.039.742-.43 1.406-1.172 1.992-.703.547-1.464.82-2.285.82-.547 0-1.25-.37-2.11-1.113-.82-.781-1.269-1.465-1.347-2.05zM44.47 60.04l.937-.82h.352c.273 0 .683-.293 1.23-.88l.586-.233c.782-1.172 1.465-1.856 2.051-2.051l.938-.703c.156-.157.37-.293.644-.41.313-.118.781-.489 1.406-1.114.664-.664 1.192-.996 1.582-.996.39 0 .703.04.938.117.234-.468.703-.918 1.406-1.347.703-.47 1.27-1.016 1.7-1.641l.761-.352a6.257 6.257 0 001.64-1.172c.508-.507 1.153-.761 1.934-.761 1.133 0 2.305.586 3.516 1.758 1.25 1.132 1.875 2.226 1.875 3.28l-.996 4.571c-.664 3.36-1.406 5.117-2.227 5.274l-.234 1.23c-.547.39-.82.703-.82.938l.351 1.406c0 .195-.215.488-.645.879-.078 0-.117.117-.117.351v2.403c0 .43-.273.78-.82 1.054.078.078.195.157.352.235.234-.235.761-.352 1.582-.352l.937.117 1.29-1.289c.273-.078.644-.254 1.113-.527.507-.313 1.347-.703 2.519-1.172l7.676-5.86c1.055-1.054 1.855-1.581 2.402-1.581.586 0 .879.37.879 1.113 0 .86-.176 1.582-.527 2.168-.313.547-.606 1.23-.88 2.05-.273.782-.605 1.329-.995 1.641a4.51 4.51 0 00-.88 1.055c-.234.351-.878.879-1.933 1.582a19.061 19.061 0 00-2.636 2.168c-.704.703-1.29 1.21-1.758 1.523l-2.52 1.817-.351.586c-.079.078-.45.254-1.114.527a6.527 6.527 0 00-1.699.938l-1.055.585c-.234.157-.625.254-1.171.293-.508.04-.958.274-1.348.704-.39.39-.703.586-.938.586l-.879-.118-1.171.352c-.664 0-1.485-.39-2.461-1.172-.938-.82-1.407-1.68-1.407-2.578v-.352l.118-.82c0-.156-.118-.547-.352-1.172-.234-.664-.352-1.035-.352-1.113l.118-.82-.118-.352c0-1.055.079-1.719.235-1.992.156-.274.273-.645.351-1.113.078-.508.157-.918.235-1.23l.293-1.466c.156-.469.351-.781.586-.937.078-.313.234-.84.468-1.582l.235-1.055.586-.82c.312-.313.488-.723.527-1.23.078-.548.293-1.114.645-1.7.351-.586.527-.938.527-1.055 0-.468-.234-.703-.703-.703-.156 0-.645.313-1.465.938l-1.055-.352c-.078 0-.293.196-.644.586 0 .156-.176.273-.528.352-.351.078-.683.37-.996.879l-.468.117-.762-.352h-.235c-.39 0-.624.43-.703 1.29-.43.624-.996 1.034-1.699 1.23l-1.289.351c-.43.157-.742.508-.937 1.055-.196.547-.586 1.055-1.172 1.523-.586.43-.977.645-1.172.645-1.094 0-1.64-.605-1.64-1.816l.468-2.754-.117-.352zm60.351-6.328l1.641-.762c.547-.351 1.074-.86 1.582-1.523l2.051-1.465c1.172-.781 1.933-1.172 2.285-1.172l.937.352c.079 0 .313-.235.704-.703.429-.508.918-.762 1.464-.762.704 0 1.661.527 2.871 1.582 1.211 1.054 1.817 1.992 1.817 2.812l-.234 1.992c0 .313.156 1.192.468 2.637v.469l-.234 1.406.234 1.465-.644 2.871c0 .742.254 1.113.761 1.113.665-.625 1.231-.996 1.7-1.113l.82-.82c.312-.313.547-.469.703-.469.156 0 .352-.176.586-.527.273-.39.606-.664.996-.82.391-.157.664-.43.82-.82 2.188-2.384 3.868-3.75 5.04-4.102.156 0 .41-.196.761-.586.391-.391.703-.625.938-.703l1.289-.997.527.235h.117c.078 0 .391-.196.938-.586.547-.39.937-.586 1.172-.586 1.484 0 2.695.508 3.632 1.523.977.977 1.465 1.739 1.465 2.285l-.293 1.348.411 1.817v1.171l-.293 1.23c0 .235.156.567.468.997.352.43.528.723.528.879-.469.508-.703.84-.703.996l.117 1.055-.293 3.222c0 .274.254.723.761 1.348.235-.156.567-.293.997-.41.429-.117.761-.234.996-.352l.351-.234c0-.04-.019-.059-.058-.059.078 0 .312.078.703.235h.234c.313 0 .488-.293.527-.88.04-.624.43-1.132 1.172-1.523l1.407.117c.078-.078.234-.39.468-.937.274-.586 1.094-1.426 2.461-2.52 1.407-1.132 2.481-1.699 3.223-1.699.625 0 .937.274.937.82 0 .157-.078.567-.234 1.231.313.547.469 1.016.469 1.406 0 .743-.645 1.543-1.934 2.403-1.25.859-2.207 1.933-2.871 3.222l-.234.235-1.172-.118c-.078 0-.274.313-.586.938-.274.586-.606.918-.996.996-.391.078-.664.195-.82.352l-1.231.761c-.234.157-1.016.957-2.344 2.403-1.289 1.406-2.383 2.11-3.281 2.11-.391 0-1.094-.196-2.109-.587-1.016-.43-1.7-.86-2.051-1.289-.352-.43-.859-.918-1.524-1.465-.625-.547-.937-1.582-.937-3.105 0-.078.098-.215.293-.41.234-.196.352-.352.352-.47-.899-1.171-1.348-2.01-1.348-2.519 0-.234.039-.488.117-.761.078-.274.117-.528.117-.762l-.117-2.05.234-1.056-.117-.644.352-2.988c0-.47-.274-.703-.821-.703-.156 0-.371.156-.644.468a3.05 3.05 0 01-1.055.762c-.39.156-.82.703-1.289 1.64-.703.391-1.191.782-1.465 1.172-.234.352-.429.528-.586.528-.078 0-.234-.04-.468-.117-.469.312-.703.664-.703 1.054v.235l.117.468c0 .352-.293.684-.879.996-.586.313-1.309 1.114-2.168 2.403-.391 0-.664.039-.82.117l-.704 1.406c-.39.235-.761.645-1.113 1.23l-.703.352a9.252 9.252 0 01-.82 1.29l-.352.644c-1.68 1.992-2.851 2.988-3.515 2.988-.665 0-1.465-.879-2.403-2.636-.937-1.758-1.406-3.126-1.406-4.102l.234-2.168c0-.078-.156-.39-.468-.938v-.234c0-.078.156-.527.468-1.348v-1.757c0-.079-.039-.196-.117-.352v-.293c0-.078.156-.39.469-.937l-.352-1.7.235-.937-.118-2.05.235-1.817c0-.117-.117-.313-.352-.586-.195-.313-.332-.469-.41-.469-.273 0-1.094.45-2.461 1.348-1.328.898-2.226 1.601-2.695 2.109a29.271 29.271 0 01-1.875 1.816c-.82.391-1.387 1.387-1.699 2.989 0 .078-.078.117-.235.117 0-.078-.117-.156-.351-.234h-.235c-.195 0-.8.84-1.816 2.52l-.234.233-1.114-.234c-.937 0-1.406.996-1.406 2.988 0 .352-.254.586-.762.704-.468.117-.84.449-1.113.996a9.696 9.696 0 01-1.113 1.699c-.899.39-1.406.683-1.524.879 0 .039-.43.625-1.289 1.757-.86 1.133-1.328 1.797-1.406 1.993-.078.195-.352.43-.82.703-.43.234-.645.449-.645.644l.176.996c0 .625-.605.938-1.817.938-2.343 0-3.515-2.442-3.515-7.324 0-.547.234-1.153.703-1.817.508-.703.996-1.543 1.465-2.52.742-.741 1.621-1.816 2.637-3.222 1.015-1.406 1.777-2.363 2.285-2.871l.762-1.23c0-.47.097-.82.292-1.055.196-.234.293-.527.293-.879 0-.625-.156-.938-.468-.938-.742 0-1.329.196-1.758.586-.43.352-.918.606-1.465.762-.508.156-.84.43-.996.82-.547.235-1.133.743-1.758 1.524-.586.742-.977 1.21-1.172 1.406-.195.195-.39.469-.586.82-.156.313-.37.489-.644.528-.274.039-.528.176-.762.41-.234.234-.605.352-1.113.352-.352 0-.684-.352-.996-1.055-.274-.742-.41-1.192-.41-1.348 0-2.851 1.894-5.312 5.683-7.383.508-.273.898-.547 1.172-.82a4.48 4.48 0 01.938-.645l.234-.41c.312-.468 1.484-1.133 3.516-1.992h.82l3.926-.996c1.68-.39 2.52 1.504 2.52 5.684l-.118 1.054.234.47a18.376 18.376 0 011.992-1.642c.704-.507 1.211-.957 1.524-1.347.312-.39.918-.781 1.816-1.172zm103.887-22.5l.352-.117h1.582c.468 0 1.152-.547 2.05-1.64.079-.079 1.114-.45 3.106-1.114l.234-.235c.547-.468.938-.78 1.172-.937h1.113c.079 0 .391-.176.938-.527.547-.391 1.699-.82 3.457-1.29 1.797-.468 2.969-.859 3.516-1.171.234-.078 1.093-.196 2.578-.352l1.64-.293 1.289.117c2.071 0 3.555 1.367 4.454 4.102 0 .156.097.41.292.762.196.312.293.547.293.703 0 1.64-.8 3.36-2.402 5.156l-.82 2.168c0 .078-.215.371-.645.879a8.896 8.896 0 00-1.054 1.816c-.313.664-1.153 1.68-2.52 3.047a43.272 43.272 0 00-.996 2.227c-.43.976-.801 1.62-1.113 1.933-.274.313-1.035 1.485-2.285 3.516-1.211 2.031-1.817 3.223-1.817 3.574-.586.43-.996 1.153-1.23 2.168a7.982 7.982 0 01-1.172 2.871l-.117.41c1.25-.43 1.875-1.113 1.875-2.05 0-.118.332-.41.996-.88l.468-.82c.469-.547.879-.859 1.231-.937.078-.313.488-.762 1.23-1.348.743-.625 1.231-1.054 1.465-1.289.274-.234.703-.469 1.289-.703.586-.273 1.25-1.25 1.992-2.93.079-.312.372-.566.879-.761a3.015 3.015 0 001.348-.938c.352-.469.645-.781.879-.937l.469-.703c.429-.391.722-.626.879-.704l2.871-3.515c1.523-.977 2.363-1.739 2.519-2.285l.469-.118h.351c.626-.507 1.036-.859 1.231-1.054 0-1.172.43-1.934 1.289-2.285.898-.391 1.543-.84 1.934-1.348.39-.547.82-.82 1.289-.82.117 0 .332.117.644.351h.117c.118 0 .235-.195.352-.586v-.586c0-.664.195-1.21.586-1.64.391-.43.918-.703 1.582-.82.664-.157 1.309-.665 1.934-1.524.625-.86 1.328-1.309 2.109-1.348.82-.039 1.367-.351 1.641-.937.273-.586 1.113-1.211 2.519-1.875 1.406-.703 2.285-1.075 2.637-1.114.351-.078.664-.195.937-.351.313-.156.625-.235.938-.235.39 0 .957.118 1.699.352l1.055.235c.898.39 1.738 1.113 2.519 2.167l.586.586v.235l.117.996v.469c.508.234.762.468.762.703l-.41.761c-.156.274-.234.606-.234.997 0 .351-.02.722-.059 1.113a9.915 9.915 0 01-.176 1.055 4.126 4.126 0 01-.234.937 6.892 6.892 0 01-.293.82 6.549 6.549 0 01-.41.703l-.469 1.875c-.156.743-.586 1.641-1.289 2.696-.664 1.015-1.055 1.738-1.172 2.168-.117.39-.391.937-.82 1.64l.117.352v.82c1.211-.156 1.816-.625 1.816-1.406 0-.82.489-1.426 1.465-1.816l1.289-1.055c1.016-1.797 2.266-2.969 3.75-3.516 0-.625.371-1.27 1.113-1.933l2.227-2.11 1.582-.879c.703-1.445 1.504-2.324 2.402-2.636l1.289-.82c.782-.391 1.211-.762 1.289-1.114.118-.39.43-.781.938-1.172.508-.39 1.25-1.035 2.227-1.933l.468-.235.586-.586c.43-.234.918-.43 1.465-.586l.469-.234c.976-.742 1.855-1.23 2.637-1.465.781-.273 1.66-.703 2.636-1.289l2.051-.293c.469-.156.781-.234.938-.234 3.711 0 5.566 2.09 5.566 6.27l-.117.937.117 3.398c-.977 1.602-1.465 2.442-1.465 2.52l.117 1.054c0 .157-.254.625-.761 1.407a58.371 58.371 0 01-.938 1.347c-.078.157-.43.567-1.055 1.23l-.586 1.759c-.195.39-.527.761-.996 1.113V40c0 .586-.761 1.465-2.285 2.637-.195 1.015-.547 1.777-1.054 2.285a5.87 5.87 0 00-1.114 1.523c-.234.508-.625.996-1.172 1.465 0 .508-.332 1.367-.996 2.578-.664 1.211-1.191 1.992-1.582 2.344-.351.313-.722.879-1.113 1.7l-.527.234c-.235 1.484-.508 2.324-.821 2.52l-.937-.118v.234c0 .078.078.215.234.41.156.196.235.41.235.645 0 .273-.118.508-.352.703-.234.196-.371.39-.41.586-.039.195-.137.39-.293.586-.117.195-.195.586-.234 1.172-.04.547-.333 1.309-.879 2.285-.547.977-.84 1.64-.879 1.992a4.35 4.35 0 01-.176.88 2.215 2.215 0 00-.117.702c0 .235-.098.84-.293 1.817.742 1.757 1.269 2.949 1.582 3.574.312.625.469 1.035.469 1.23 0 1.563-.196 2.618-.586 3.164-.391.508-1.348.762-2.871.762-.977 0-1.836-.332-2.579-.996-.703-.703-1.328-1.055-1.875-1.055v-1.054l-.117-.118h-.937a5.053 5.053 0 00-.528-.41 3.846 3.846 0 01-.703-.82l-.351-.351c-.313-.391-.586-1.036-.821-1.934L272.926 70l.117-.938-.117-1.464c0-.391.039-.704.117-.938l.117-1.582c0-.156.078-.488.235-.996a8.653 8.653 0 00.293-1.875c.039-.742.214-1.309.527-1.7.312-.39.488-.722.527-.995.039-.274.137-.489.293-.645.195-.195.352-.644.469-1.347.117-.704.527-1.27 1.23-1.7a23.39 23.39 0 00.996-1.992c.821-1.133 1.25-1.7 1.29-1.7h.82c-.391-.468-.586-.741-.586-.82 0-1.054.41-1.581 1.23-1.581.157 0 .352.039.586.117l.235-.469-.235-.996c0-.664.508-1.328 1.524-1.992 0-1.133.527-2.149 1.582-3.047l-.117-.938c.234-.234.566-.742.996-1.523.429-.82.976-1.64 1.64-2.461l1.817-2.754.82-.937v.058a.637.637 0 00.117-.234c.078-.157.156-.371.235-.645l.351-.879.41-.468c1.016-.274 1.524-.625 1.524-1.055 0-.078-.157-.332-.469-.762v-.234c0-.313.234-.703.703-1.172s.899-1.113 1.289-1.934c.43-.859.645-1.386.645-1.582 0-.156-.078-.234-.235-.234-1.25 0-2.09.45-2.519 1.348 0 .234-.762.703-2.285 1.406l-.586.879c-.469.43-.879.644-1.231.644-.351 0-.82.235-1.406.703-.547.43-1.777 1.446-3.691 3.047-1.914 1.563-3.321 2.852-4.219 3.867l-1.348.938c-.547.273-.82.488-.82.645 0 .39-.332.898-.996 1.523l-.703.879c-.547-.196-.86-.293-.938-.293-.43 0-.801.215-1.113.644.312.313.469.508.469.586 0 .625-.586 1.27-1.758 1.934l-2.52 2.637c-.078.078-.371.293-.879.644a3.547 3.547 0 00-1.171 1.348c-.235.508-.918 1.426-2.051 2.754-1.133 1.289-1.797 1.992-1.992 2.11-.196.077-.43.331-.704.76-.273.43-.839 1.036-1.699 1.817-.859.782-1.347 1.64-1.465 2.578-.742.274-1.113.508-1.113.703l-.352.586-.468.235c-.078.156-.137.43-.176.82-.039.352-.82 1.016-2.344 1.992-1.523.938-2.48 1.407-2.871 1.407-.117 0-.293.078-.527.234-.235.156-.391.234-.469.234-.117 0-.645-.234-1.582-.703-.898-.469-1.563-1.562-1.992-3.281l.469-1.523-.235-1.231c0-.234.176-.547.528-.938.39-.39.585-.878.585-1.464.625-1.407 1.094-2.403 1.407-2.989l.117-.937c.156-.39.41-.82.762-1.29.39-.507.625-1.054.703-1.64.078-.625.332-1.015.761-1.172.43-.156 2.012-2.52 4.747-7.09v-.82l1.699-2.93a56.748 56.748 0 011.875-2.93l.527-1.347c-1.211-.469-1.855-.703-1.933-.703-.235 0-.528.156-.879.469 0 .664-1.153 1.347-3.457 2.05-.469.235-1.075.801-1.817 1.7l-1.64.937c-.235.157-.606.469-1.114.938l-.82.761c-.977.235-1.816.782-2.52 1.641l-1.582 1.113c-.468.391-.781.684-.937.88-.156.195-.879.624-2.168 1.288l-.938.938-.878.469c-.625.664-1.094 1.23-1.407 1.699-.312.469-.722.742-1.23.82l-1.289.469c-.235 1.016-.957 1.992-2.168 2.93l-1.699 2.109a8.196 8.196 0 01-.821.645c-.156.39-.429.664-.82.82-.508.625-.84 1.054-.996 1.289l-.703.527c-1.055.39-1.582.703-1.582.938l.117 1.054c0 .43-.469.84-1.406 1.23a1.244 1.244 0 00-.703.938c-.04.43-.176.88-.411 1.348h-1.054c-.118 0-.489.195-1.114.586-.078 0-.156.039-.234.117l.234 1.348c0 .469-.312 1.015-.937 1.64-.625.586-1.113 1.114-1.465 1.583-.312.468-.547.703-.703.703h-.352l-.351.234c.039.742-.449 1.543-1.465 2.402l-.703.88c-.235.194-.899 1.171-1.992 2.929-1.094 1.758-2.129 3.183-3.106 4.277-.976 1.094-1.875 1.836-2.695 2.227-.82.351-1.699.723-2.637 1.113l-2.402-.469a2.738 2.738 0 00-1.055-1.054c-.43-.274-.644-.567-.644-.88l-.704-2.05c0-.547.215-1.211.645-1.992.43-.82.684-1.445.762-1.875.117-.469.351-1.074.703-1.817.351-.78.527-1.21.527-1.289 0-1.054.156-1.699.469-1.933.351-.274 1.113-.86 2.285-1.758.078 0 .117-.078.117-.235v-.117l-.117-.996c.899-1.523 1.465-2.285 1.699-2.285.078 0 .235.04.469.117l-.352-1.289c0-.156.215-.41.645-.761.43-.352.762-.743.996-1.172l-.234-.703v-.235c0-.742.488-1.504 1.465-2.285.156-.313.468-1.113.937-2.402l1.524-2.696c.39-.742.8-1.23 1.23-1.465.43-.273.664-.585.703-.937.039-.352.176-.742.41-1.172 0 .195.02.215.059.059.078-.196.176-.586.293-1.172.156-.586.605-1.055 1.347-1.406.899-2.305 1.602-3.457 2.11-3.457.156 0 .371.078.644.234h.235c.625 0 .937-.234.937-.703 0-.157-.078-.235-.234-.235-.352.391-.664.586-.938.586-.273 0-.41-.078-.41-.234 0-.078.059-.156.176-.234l1.289-2.637.117-1.113c.156-.235.469-.586.938-1.055l.996-1.348v-.586c0-.078.176-.468.527-1.172.352-.742.606-1.464.762-2.168l.996-1.464c.156-.47.234-.899.234-1.29 0-.585-.078-.878-.234-.878l-3.398.644c-1.836.938-3.145 1.68-3.926 2.227l-1.348.293c-.078 0-.605.273-1.582.82-.937.508-1.777.8-2.519.879-.704.039-1.329.312-1.875.82l-.235.117h-1.113c-.43.508-.723.899-.879 1.172-.156.235-.293.352-.41.352-3.945 2.617-6.445 4.2-7.5 4.746-1.055.547-1.856 1.055-2.402 1.523-.547.43-1.016.743-1.407.938v.703c0 .664-.488 1.426-1.465 2.285-.937.82-1.757 1.23-2.461 1.23-.234 0-.605-.117-1.113-.35-.469-.274-1.015-.45-1.64-.528-.586-.078-.879-.82-.879-2.227 0-1.992 1.64-3.808 4.922-5.449a8.33 8.33 0 001.406-.82c.429-.313 2.168-1.075 5.215-2.285l1.699-.82c.39-.391 1.035-.743 1.933-1.056a33.537 33.537 0 002.168-.878c.547-.235.977-.391 1.289-.47l.352-.878zm54.961 14.18l.586-1.055v-.117c0-.078-.078-.117-.234-.117-.391 0-.704.39-.938 1.171.078.235.156.352.234.352.157 0 .274-.078.352-.234zM327.36 74.22l-2.754 2.402c-.156-.156-.312-.234-.468-.234-.391 0-.879.351-1.465 1.054-.547.703-.938 1.055-1.172 1.055l-.586-.117c-.976.742-1.68 1.172-2.109 1.289-.43.117-.957.332-1.582.644-.586.313-1.133.489-1.641.528a1.817 1.817 0 00-1.172.527c-.312.274-1.074.41-2.285.41l-.937-.117c-.508.234-.84.352-.997.352-.312 0-.644-.156-.996-.469-.351-.352-.742-.547-1.172-.586-.39-.039-.8-.313-1.23-.82-.43-.508-.84-.86-1.231-1.055a2.516 2.516 0 01-.878-.82l-.821-.703c-.664-.47-1.308-1.328-1.933-2.578-.625-1.25-.938-2.227-.938-2.93v-.235l.117-1.113-.117-1.289c.156-.156.352-.488.586-.996v-1.875l1.406-4.688c.078-.195-.078-.449-.468-.761-.391.586-.782.937-1.172 1.054-.391.118-.664.391-.821.82-.117.43-.332.645-.644.645l-.703-.234c-.078.078-.254.488-.528 1.23-.273.704-.742 1.055-1.406 1.055-.703 0-1.054-.273-1.054-.82l.117-1.055-.352-1.465c0-.312.313-.918.938-1.816.625-.938 1.191-1.465 1.699-1.582.547-.157.996-.528 1.348-1.114.39-.624 1.21-1.367 2.46-2.226.704-.156 1.309-.664 1.817-1.523.547-.43 1.25-.782 2.109-1.055.899-.274 1.563-.664 1.992-1.172.469-.547 1.797-1.367 3.985-2.461 2.226-1.133 3.847-1.7 4.863-1.7.313 0 .742-.077 1.289-.234a16.33 16.33 0 011.524-.468 9.32 9.32 0 001.464-.645c.508-.312.918-.469 1.231-.469l1.699.586c1.25.352 2.012.606 2.285.762.078.078.469.254 1.172.527a11.18 11.18 0 012.227.996c.781.43 1.172 1.23 1.172 2.403-.665.976-.997 1.504-.997 1.582 0 .156.45.39 1.348.703.313.586.781 1.348 1.406 2.285l.645 2.05.117 4.806-.117.468c-.43.391-.645.645-.645.762l.176 1.172-.469 1.64c-.117.508-.312.84-.586.997-.273.156-.449.351-.527.586l-.351.468c-.079.117-.254.47-.528 1.055-.234.547-.508.977-.82 1.29a2.059 2.059 0 00-.586 1.112c-.078.43-.273.743-.586.938-.312.195-.547.41-.703.644-.117.196-.332.371-.645.528zm-18.222 1.523l.234 1.348.117.117h.938l.293.117c.781.157 1.367.235 1.758.235 1.211 0 2.168-.293 2.871-.88.742-.624 1.328-.937 1.757-.937.43 0 .782-.293 1.055-.879.313-.586.508-.879.586-.879h.82l.235-.117c0-.898.39-1.543 1.172-1.933.82-.391 1.386-.899 1.699-1.524.351-.664.742-1.152 1.172-1.465.429-.351.722-.8.879-1.347l.468-.704c.157-.156.235-.449.235-.878l1.113-2.11c.234-.976.352-1.738.352-2.285 0-.82-.43-1.465-1.289-1.934-.821-.468-1.231-1.386-1.231-2.753 0-.899.449-1.72 1.348-2.461.937-.782 1.406-1.25 1.406-1.407 0-.234-.117-.351-.352-.351-.117 0-.566.156-1.347.469-.274.547-1.66 1.27-4.16 2.168-.821-.391-1.27-.586-1.348-.586-.234 0-.469.234-.703.703-.235.468-.469.8-.703.996h-.762c-.078 0-.332.254-.762.762a2.053 2.053 0 01-1.64.761l-.703.703c.039.625-.352 1.27-1.172 1.934l-.645.762a25.34 25.34 0 01-1.523 1.64l-1.055 2.637c-.43 1.016-.645 1.777-.645 2.285-.117.235-.39.489-.82.762-.39.234-.586.547-.586.937 0 .079.137.274.41.586.274.313.411.547.411.704l-.235.761-.234 2.168.586 1.875zm48.164-48.34l.82-.234.586-.586h.117l.528.234h.117c.937 0 1.758-.175 2.461-.527.742-.39 1.347-.664 1.816-.82.508-.157.82-.274.938-.352.117-.078.214-.117.293-.117l.937.117c.313 0 .723-.547 1.231-1.64.546-1.133 1.152-1.954 1.816-2.461.664-.508 1.328-1.465 1.992-2.871.156-.196.332-.489.527-.88.196-.43.352-.644.469-.644.586 0 1.055-.371 1.406-1.113 1.172-1.367 2.129-2.051 2.872-2.051.976 0 1.66.938 2.05 2.813l.586 2.226c0 .04-.097.332-.293.879a4.377 4.377 0 00-.293 1.582c.039.508.02.86-.058 1.055a2.467 2.467 0 00-.059.586c0 .312.332.468.996.468.235 0 .664-.156 1.289-.468l.352-.117c.391.234.723.351.996.351.078 0 .625-.195 1.641-.586 1.054-.39 1.718-.605 1.992-.644.273-.04.742-.196 1.406-.47h.703l.469.177c.156 0 .469-.157.937-.47.508-.35 1.446-.566 2.813-.644l.82-.351h.235c1.289 0 1.933.566 1.933 1.699 0 .234-.195.645-.586 1.23a9.364 9.364 0 00-.879 1.993l-2.695 3.398c-.898 1.172-1.797 1.758-2.695 1.758-.157 0-.645-.527-1.465-1.582 0-.078-.078-.117-.234-.117-.391 0-.801.078-1.231.234-.43.156-.781.234-1.055.234-.117 0-1.152.293-3.105.88l-1.406.234c-.157 0-.528.078-1.114.234l-2.988.586c-1.016.508-1.816 1.465-2.402 2.871 0 .078-.196.254-.586.527l-2.637 4.805c-.859.234-1.426.742-1.699 1.524l-.235.351c-.429.078-.82.332-1.171.762-.352.39-.684.703-.997.937l-1.054 1.582c-.43.547-.86 1.153-1.289 1.817a6.53 6.53 0 00-.938 2.05c-.195.704-.351 1.114-.469 1.231-.117.117-.175.332-.175.645l-.176.468c-.469.47-.703.996-.703 1.582l.234.938c-.547 1.875-.82 2.87-.82 2.988 0 .078.039.293.117.645v.351c0 .86-.312 1.934-.937 3.223l.117.937-.352 2.637c0 .352.117.996.352 1.934-.157.156-.235.273-.235.351 0 1.094.567 2.305 1.7 3.633 1.171 1.29 1.757 3.32 1.757 6.094 0 .234-.058.586-.175 1.055-.118.43-.196.918-.235 1.464-.039.508-.351 1.016-.937 1.524-.547.508-1.016.761-1.406.761-2.071 0-3.614-1.503-4.629-4.511-1.016-3.008-1.524-4.942-1.524-5.801l.117-2.285-.351-1.172.351-5.156-.234-1.23 1.348-5.04v-1.816c0-.078.273-.39.82-.938 0-.078-.078-.117-.234-.117-.235 0-.547.234-.938.703a8.229 8.229 0 01-1.465 1.348l-.469.82c-.078-.078-.234-.156-.468-.234-.196.078-.84.996-1.934 2.754-.82.117-1.465.586-1.933 1.406-.469.82-1.114 1.23-1.934 1.23l-.234.118c-.157 1.132-.704 1.699-1.641 1.699l-.234.117c-.586 1.328-1.192 1.973-1.817 1.934-.39 1.171-1.347 1.972-2.871 2.402a2.37 2.37 0 01-.996 1.055c-.469.234-.801.449-.996.644-.195.195-.371.293-.527.293-.508 0-.762-.547-.762-1.64 0-.313.137-.645.41-.997.234-.39.352-.664.352-.82 0-.078-.196-.312-.586-.703 0-1.21.312-1.973.937-2.285a3.131 3.131 0 001.406-1.348c.196-.469.586-.8 1.172-.996.586-.195.879-.45.879-.762 0-.273.508-.82 1.524-1.64 1.015-.82 1.757-1.524 2.226-2.11.469-.625.859-.937 1.172-.937l.234-.234c.079-.977.45-1.465 1.114-1.465l.586-.352.117-.469.351-.234h.469l.293-.234c.078-.977.527-1.739 1.348-2.286.859-.546 2.402-2.07 4.629-4.57 2.226-2.539 3.476-4.16 3.75-4.863.273-.703.761-1.64 1.464-2.813.743-1.21 1.153-2.343 1.231-3.398a1.818 1.818 0 00-.352-.469l-2.519 1.23c0-.117-.391-.292-1.172-.527-.586.352-1.016.703-1.289 1.055-.274.352-.488.527-.645.527l-.82-.117-2.578.293c-2.305.195-4.043.664-5.215 1.406l-2.402.703h-.528c-.312 0-.781.196-1.406.586l-1.347-.117c-1.25.664-2.168.996-2.754.996-.079 0-.313-.039-.704-.117l-5.976 1.64c-.469.157-1.524.958-3.164 2.403l-.469.117c-.391 0-.84-.43-1.348-1.289-.546-.898-.82-1.699-.82-2.402 0-3.867 3.32-6.113 9.961-6.738l2.402-.938h.118l.644.235h.234c.235 0 .606-.137 1.114-.41.508-.313 1.64-.684 3.398-1.114l2.403-.645.761.118c.391 0 .821-.157 1.289-.47.508-.312 1.25-.526 2.227-.644 1.016-.156 1.719-.312 2.109-.468l.938-.235c.156 0 .469-.136.937-.41.508-.273 1.153-.41 1.934-.41.117 0 .41.078.879.234zm46.816 46.817l-2.754 2.402c-.156-.156-.312-.234-.468-.234-.391 0-.879.351-1.465 1.054-.547.703-.938 1.055-1.172 1.055l-.586-.117c-.977.742-1.68 1.172-2.11 1.289-.429.117-.957.332-1.582.644-.585.313-1.132.489-1.64.528-.469.039-.86.215-1.172.527-.313.274-1.074.41-2.285.41l-.938-.117c-.507.234-.84.352-.996.352-.312 0-.644-.156-.996-.469-.351-.352-.742-.547-1.172-.586-.39-.039-.801-.313-1.23-.82-.43-.508-.84-.86-1.231-1.055a2.527 2.527 0 01-.879-.82l-.82-.703c-.664-.47-1.309-1.328-1.933-2.578-.626-1.25-.938-2.227-.938-2.93v-.235l.117-1.113-.117-1.289c.156-.156.352-.488.586-.996v-1.875l1.406-4.688c.078-.195-.078-.449-.469-.761-.39.586-.781.937-1.171 1.054-.391.118-.664.391-.821.82-.117.43-.332.645-.644.645l-.703-.234c-.079.078-.254.488-.528 1.23-.273.704-.742 1.055-1.406 1.055-.703 0-1.055-.273-1.055-.82l.117-1.055-.351-1.465c0-.312.312-.918.937-1.816.625-.938 1.192-1.465 1.7-1.582.547-.157.996-.528 1.347-1.114.391-.624 1.211-1.367 2.461-2.226.703-.156 1.309-.664 1.817-1.523.547-.43 1.25-.782 2.109-1.055.898-.274 1.563-.664 1.992-1.172.469-.547 1.797-1.367 3.985-2.461 2.226-1.133 3.847-1.7 4.863-1.7.312 0 .742-.077 1.289-.234a16.408 16.408 0 011.523-.468 9.329 9.329 0 001.465-.645c.508-.312.918-.469 1.231-.469l1.699.586c1.25.352 2.012.606 2.285.762.078.078.469.254 1.172.527.742.235 1.484.567 2.226.996.782.43 1.172 1.23 1.172 2.403-.664.976-.996 1.504-.996 1.582 0 .156.45.39 1.348.703.312.586.781 1.348 1.406 2.285l.645 2.05.117 4.806-.117.468c-.43.391-.645.645-.645.762l.176 1.172-.469 1.64c-.117.508-.312.84-.586.997-.273.156-.449.351-.527.586l-.352.468c-.078.117-.254.47-.527 1.055-.234.547-.508.977-.82 1.29a2.059 2.059 0 00-.586 1.112c-.078.43-.274.743-.586.938-.313.195-.547.41-.703.644-.117.196-.332.371-.645.528zm-18.222 1.523l.234 1.348.117.117h.938l.293.117c.781.157 1.367.235 1.757.235 1.211 0 2.168-.293 2.871-.88.743-.624 1.329-.937 1.758-.937.43 0 .782-.293 1.055-.879.312-.586.508-.879.586-.879h.82l.235-.117c0-.898.39-1.543 1.171-1.933.821-.391 1.387-.899 1.7-1.524.351-.664.742-1.152 1.172-1.465.429-.351.722-.8.878-1.347l.469-.704c.156-.156.235-.449.235-.878l1.113-2.11c.234-.976.351-1.738.351-2.285 0-.82-.429-1.465-1.289-1.934-.82-.468-1.23-1.386-1.23-2.753 0-.899.449-1.72 1.348-2.461.937-.782 1.406-1.25 1.406-1.407 0-.234-.117-.351-.352-.351-.117 0-.566.156-1.347.469-.274.547-1.661 1.27-4.161 2.168-.82-.391-1.269-.586-1.347-.586-.235 0-.469.234-.703.703-.235.468-.469.8-.703.996h-.762c-.078 0-.332.254-.762.762-.43.507-.976.761-1.641.761l-.703.703c.039.625-.351 1.27-1.172 1.934l-.644.762a25.173 25.173 0 01-1.524 1.64l-1.054 2.637c-.43 1.016-.645 1.777-.645 2.285-.117.235-.39.489-.82.762-.391.234-.586.547-.586.937 0 .079.137.274.41.586.274.313.41.547.41.704l-.234.761-.234 2.168.586 1.875zm42.246-23.848l.879-.234.351-.762c1.914-1.132 3.281-2.207 4.102-3.222.078-.157.254-.313.527-.469.273-.156.566-.43.879-.82 1.445-1.446 3.164-2.168 5.156-2.168 2.344 0 3.594 1.425 3.75 4.277l.352.879c.312.547.742 1.66 1.289 3.34.586 1.68.879 2.715.879 3.105 0 1.055-.332 2.11-.996 3.164-.547.274-1.856 1.739-3.926 4.395l-.586.41a11.826 11.826 0 01-1.231 2.11c-.781.273-1.171.566-1.171.878v1.055c0 .078-.098.234-.293.469-.157.234-.391.683-.704 1.347l-.468.704c-.157.156-.313.488-.469.996a4.154 4.154 0 01-.703 1.289c-.274.39-.41.703-.41.937 0 .586.761.88 2.285.88.078 0 .371-.118.879-.352l.82.234c.078 0 .273-.117.586-.352.312-.273.781-.488 1.406-.644.664-.156 1.231-.39 1.699-.703a9.184 9.184 0 011.758-.82 6.322 6.322 0 001.992-1.114c.625-.547 1.231-.937 1.817-1.172a5.158 5.158 0 001.699-1.054 13.206 13.206 0 011.816-1.407c.665-.43 1.719-1.367 3.165-2.812.937-.742 1.582-1.152 1.933-1.23.078 0 .41-.508.996-1.524.625-1.055 1.328-1.582 2.11-1.582.82 0 1.23.39 1.23 1.172 0 .43-.195.84-.586 1.23v.352l.117.937c.078.117.118.293.118.528 0 .156-.157.39-.469.703-.274.312-.469.722-.586 1.23-.117.469-.488.782-1.113.938-.235.86-.547 1.347-.938 1.465-.352.117-.859.507-1.523 1.171-.664.665-1.602 1.446-2.813 2.344-1.211.899-2.051 1.602-2.519 2.11-.43.468-.723.703-.879.703-.078 0-.235-.078-.469-.235-.234-.156-.391-.234-.469-.234-.234 0-.39.273-.469.82l-.234.586c-.508.313-.801.469-.879.469l-.351-.117h-.235c-.469 0-.703.175-.703.527l.352.586v.117c0 .547-.313.82-.938.82-.43 0-1.68.723-3.75 2.168l-1.699.352-1.406.762c-.469-.274-.762-.41-.879-.41l-.938.293-1.699.117c-.039 0-.762-.39-2.168-1.172-1.367-.781-2.187-1.563-2.461-2.344a15.403 15.403 0 00-1.055-2.344c-.429-.82-.644-1.386-.644-1.699 0-1.875.156-3.203.469-3.984.312-.82.507-1.426.586-1.817.078-.39.293-.8.644-1.23.391-.469.703-1.211.938-2.227 1.132-2.265 1.914-3.652 2.343-4.16.43-.508.762-1.133.996-1.875l.762-1.054c.078-.079.196-.372.352-.88.156-.546.351-.859.586-.937.312-.547.468-.898.468-1.055 0-1.132-.507-1.699-1.523-1.699-.195 0-.41.215-.645.645-.234.39-.781.781-1.64 1.172-.82.39-1.328.683-1.524.879-.195.195-.625.449-1.289.761-.625.274-1.172.723-1.64 1.348l-.996.469c-.313.742-.586 1.152-.821 1.23-.234.078-.957.274-2.168.586-.078.04-.273.273-.586.703-.312.43-.761.645-1.347.645a15.306 15.306 0 00-1.407 1.64c-.156 0-.566.157-1.23.47l-1.172.292c-.312.234-.664.605-1.055 1.113-.351.508-1.035.762-2.05.762-.586 0-.879-.469-.879-1.406 0-1.914.664-3.438 1.992-4.57 1.367-1.133 2.363-1.739 2.988-1.817.625-.078 1.016-.312 1.172-.703.156-.39.527-.703 1.113-.938.625-.273 1.329-.84 2.11-1.699.82-.898 1.699-1.504 2.637-1.816l.703-.82zm41.367.47l.82-1.466c.234-.351.527-.703.879-1.054.391-.39.801-1.348 1.231-2.871.429-1.563.898-2.637 1.406-3.223.547-.586 1.328-.879 2.344-.879.585 0 1.347.293 2.285.879.976.547 1.914 2.246 2.812 5.098.938 2.851 1.406 4.863 1.406 6.035 0 .469.137 1.074.411 1.816.273.703.449 1.25.527 1.64-.313.665-.469 1.036-.469 1.114l.117 2.402-.703 1.934v1.406c-.469.782-.703 1.27-.703 1.465 0 .234.078.469.234.703 1.836-.781 2.95-1.406 3.34-1.875.391-.507.762-.82 1.114-.937.39-.117 1.015-.625 1.875-1.524l1.113-.586c.391-.468.723-.879.996-1.23.273-.39.586-.664.937-.82.391-.157.84-.43 1.348-.82.508-.391 1.25-.84 2.227-1.348l.586-.703a6.723 6.723 0 012.05-1.583c.821-.39 1.27-.585 1.348-.585.273 0 .547.37.82 1.113a5.15 5.15 0 01.469 2.11c0 .663-.39 1.327-1.172 1.991-.742.625-1.25 1.094-1.523 1.407-.274.312-.899.586-1.875.82-.078.039-.723.84-1.934 2.402l-1.172.703-.586.762c-.078.156-.605.313-1.582.469-.039 0-.136.195-.293.586-.117.39-.527.664-1.23.82-1.406 1.29-2.129 2.012-2.168 2.168l-1.231.234c-.234.743-.429 1.192-.585 1.348-.938.234-1.465.625-1.582 1.172-.118.078-.313.156-.586.234l-.235.176c-.898.703-1.777 1.133-2.636 1.29l-1.348.35-.469.704c0 .195-.488.45-1.465.762-.937.312-1.64.703-2.109 1.171l-.996.762c-1.211.469-1.973.899-2.285 1.29h-.821c-.547 0-1.406.41-2.578 1.23-1.172.781-2.109 1.172-2.812 1.172-2.266 0-3.828-.274-4.688-.82a8.101 8.101 0 01-2.051-2.11c-.546-.86-1.035-1.543-1.464-2.05-.469-.509-.704-.919-.704-1.231 0-.274.196-.547.586-.82.352-.274.743-.82 1.172-1.641.43-.86 1.524-1.407 3.282-1.64.078 0 .351-.118.82-.352.508-.235.918-.352 1.23-.352.391 0 .879.352 1.465 1.055 0 .078.078.117.235.117l.937-.117c.43.312.723.469.879.469.937 0 1.934-.47 2.988-1.407l.235-.117h.468c.117 0 .313-.332.586-.996l.996-2.05 2.051-2.638v-.585c0-.118.117-.47.352-1.055v-.88c0-.35.234-.566.703-.644.469-.117.703-.37.703-.761l-.117-.47c-.313-.429-.469-.76-.469-.995l.586-1.172-.117-1.23.234-.47c-.156-.546-.234-.859-.234-.937l.234-1.465c0-.039-.117-.41-.351-1.113-.196-.703-.352-1.055-.469-1.055-.235 0-.977.606-2.227 1.817-1.25 1.21-1.992 2.07-2.226 2.578-.235.508-.742.977-1.524 1.406-.742.39-1.25.84-1.523 1.348-.274.508-.606.8-.996.879l-3.926 3.164-4.277 3.164c-.313.351-.508.527-.586.527-1.446 0-2.168-.8-2.168-2.402 0-.508.293-1.426.879-2.754.273-.156.488-.273.644-.352.117-.078.176-.136.176-.175 0-.04-.039-.059-.117-.059l.351.234h.117c1.446-.976 2.383-1.543 2.813-1.699.43-.156.82-.586 1.172-1.289l2.461-1.758c.625-.468 1.582-1.328 2.871-2.578 1.289-1.25 2.109-2.168 2.461-2.754z" fill="#1476FF"/></svg>