<svg width="43" height="43" viewBox="0 0 43 43" fill="none" xmlns="http://www.w3.org/2000/svg">
<g clip-path="url(#clip0_23_1948)" filter="url(#filter0_i_23_1948)">
<path d="M41.479 11.4856C41.2391 10.6299 40.7719 9.85523 40.1269 9.24391C39.4638 8.61378 38.651 8.16304 37.7652 7.93422C34.4504 7.06051 21.17 7.06051 21.17 7.06051C15.6336 6.99752 10.0985 7.27457 4.59598 7.89009C3.71025 8.13582 2.89898 8.59663 2.23431 9.23155C1.58124 9.85992 1.1082 10.6348 0.861087 11.4838C0.267481 14.6816 -0.0209341 17.9287 -0.000268659 21.1811C-0.0214495 24.4306 0.266257 27.6766 0.861087 30.8784C1.1029 31.7239 1.57418 32.4952 2.22902 33.1183C2.88386 33.7414 3.69933 34.1915 4.59598 34.4297C7.95492 35.3017 21.17 35.3017 21.17 35.3017C26.7135 35.3648 32.2557 35.0877 37.7652 34.4721C38.651 34.2433 39.4638 33.7925 40.1269 33.1624C40.78 32.5393 41.2442 31.7645 41.4772 30.9208C42.0863 27.7241 42.3825 24.4758 42.3615 21.2217C42.4073 17.9538 42.1115 14.6902 41.479 11.4838V11.4856ZM16.948 27.2247V15.1393L27.9973 21.1829L16.948 27.2247Z" fill="#1476FF"/>
</g>
<defs>
<filter id="filter0_i_23_1948" x="0" y="0" width="42.3618" height="43.0816" filterUnits="userSpaceOnUse" color-interpolation-filters="sRGB">
<feFlood flood-opacity="0" result="BackgroundImageFix"/>
<feBlend mode="normal" in="SourceGraphic" in2="BackgroundImageFix" result="shape"/>
<feColorMatrix in="SourceAlpha" type="matrix" values="0 0 0 0 0 0 0 0 0 0 0 0 0 0 0 0 0 0 127 0" result="hardAlpha"/>
<feOffset dy="0.719779"/>
<feGaussianBlur stdDeviation="1.34959"/>
<feComposite in2="hardAlpha" operator="arithmetic" k2="-1" k3="1"/>
<feColorMatrix type="matrix" values="0 0 0 0 0 0 0 0 0 0 0 0 0 0 0 0 0 0 0.2 0"/>
<feBlend mode="normal" in2="shape" result="effect1_innerShadow_23_1948"/>
</filter>
<clipPath id="clip0_23_1948">
<rect width="42.3618" height="42.3618" fill="white"/>
</clipPath>
</defs>
</svg>
