<svg width="33" height="34" viewBox="0 0 33 34" fill="none" xmlns="http://www.w3.org/2000/svg">
<g filter="url(#filter0_i_23_1955)">
<path fill-rule="evenodd" clip-rule="evenodd" d="M10.1503 1.99062C11.7452 1.9172 12.2537 1.90088 16.3165 1.90088C20.3792 1.90088 20.8877 1.91855 22.4813 1.99062C24.0748 2.06268 25.1626 2.31694 26.1144 2.68542C27.111 3.06205 28.0152 3.6508 28.763 4.41222C29.5245 5.15869 30.1119 6.06152 30.4871 7.05953C30.857 8.01132 31.1099 9.09907 31.1833 10.6899C31.2567 12.2875 31.273 12.7961 31.273 16.8574C31.273 20.9202 31.2553 21.4287 31.1833 23.0236C31.1112 24.6145 30.857 25.7022 30.4871 26.654C30.1118 27.6521 29.5235 28.5565 28.763 29.304C28.0152 30.0654 27.111 30.6528 26.1144 31.0281C25.1626 31.3979 24.0748 31.6508 22.484 31.7243C20.8877 31.7977 20.3792 31.814 16.3165 31.814C12.2537 31.814 11.7452 31.7963 10.1503 31.7243C8.55944 31.6522 7.47169 31.3979 6.51991 31.0281C5.52179 30.6528 4.61746 30.0644 3.86988 29.304C3.10897 28.5571 2.52014 27.6532 2.14443 26.6554C1.77596 25.7036 1.52306 24.6158 1.44963 23.025C1.37621 21.4274 1.35989 20.9188 1.35989 16.8574C1.35989 12.7947 1.37757 12.2862 1.44963 10.6926C1.5217 9.09907 1.77596 8.01132 2.14443 7.05953C2.52069 6.06163 3.10997 5.15776 3.87124 4.41086C4.61776 3.65012 5.52118 3.0613 6.51855 2.68542C7.47033 2.31694 8.55808 2.06404 10.1489 1.99062H10.1503ZM22.3603 4.6828C20.783 4.61074 20.3099 4.59578 16.3165 4.59578C12.3231 4.59578 11.8499 4.61074 10.2726 4.6828C8.8137 4.74942 8.02236 4.99281 7.4948 5.19812C6.79729 5.47006 6.29828 5.79231 5.7748 6.31578C5.27857 6.79854 4.89669 7.38624 4.65714 8.03579C4.45182 8.56335 4.20844 9.35469 4.14181 10.8136C4.06975 12.3909 4.0548 12.864 4.0548 16.8574C4.0548 20.8508 4.06975 21.324 4.14181 22.9013C4.20844 24.3602 4.45182 25.1515 4.65714 25.6791C4.89644 26.3277 5.27851 26.9164 5.7748 27.3991C6.25749 27.8954 6.84623 28.2775 7.4948 28.5168C8.02236 28.7221 8.8137 28.9655 10.2726 29.0321C11.8499 29.1042 12.3217 29.1191 16.3165 29.1191C20.3112 29.1191 20.783 29.1042 22.3603 29.0321C23.8192 28.9655 24.6106 28.7221 25.1381 28.5168C25.8356 28.2448 26.3346 27.9226 26.8581 27.3991C27.3544 26.9164 27.7365 26.3277 27.9758 25.6791C28.1811 25.1515 28.4245 24.3602 28.4911 22.9013C28.5632 21.324 28.5781 20.8508 28.5781 16.8574C28.5781 12.864 28.5632 12.3909 28.4911 10.8136C28.4245 9.35469 28.1811 8.56335 27.9758 8.03579C27.7038 7.33827 27.3816 6.83926 26.8581 6.31578C26.3753 5.8196 25.7876 5.43771 25.1381 5.19812C24.6106 4.99281 23.8192 4.74942 22.3603 4.6828ZM14.4061 21.4681C15.473 21.9123 16.661 21.9722 17.7671 21.6377C18.8733 21.3033 19.8291 20.5951 20.4711 19.6343C21.1132 18.6734 21.4018 17.5194 21.2875 16.3695C21.1733 15.2195 20.6634 14.1448 19.8448 13.3291C19.323 12.8076 18.6921 12.4083 17.9975 12.1599C17.3028 11.9116 16.5618 11.8203 15.8276 11.8927C15.0935 11.9651 14.3845 12.1994 13.7518 12.5787C13.1191 12.958 12.5783 13.4728 12.1685 14.0862C11.7586 14.6996 11.4898 15.3962 11.3815 16.1259C11.2732 16.8556 11.328 17.6002 11.542 18.3062C11.756 19.0122 12.1238 19.6619 12.6191 20.2087C13.1143 20.7554 13.7247 21.1856 14.4061 21.4681ZM10.8804 11.4214C11.5943 10.7075 12.4418 10.1413 13.3745 9.75493C14.3072 9.36858 15.3069 9.16973 16.3165 9.16973C17.326 9.16973 18.3257 9.36858 19.2584 9.75493C20.1911 10.1413 21.0386 10.7075 21.7525 11.4214C22.4664 12.1353 23.0326 12.9828 23.419 13.9155C23.8053 14.8482 24.0042 15.8479 24.0042 16.8574C24.0042 17.867 23.8053 18.8667 23.419 19.7994C23.0326 20.7321 22.4664 21.5796 21.7525 22.2935C20.3108 23.7352 18.3554 24.5452 16.3165 24.5452C14.2776 24.5452 12.3222 23.7352 10.8804 22.2935C9.4387 20.8517 8.62875 18.8964 8.62875 16.8574C8.62875 14.8185 9.4387 12.8631 10.8804 11.4214ZM25.7092 10.3146C25.8861 10.1478 26.0277 9.94708 26.1257 9.72449C26.2236 9.5019 26.2759 9.26191 26.2795 9.01875C26.283 8.77558 26.2377 8.53418 26.1463 8.30883C26.0549 8.08348 25.9192 7.87876 25.7472 7.7068C25.5752 7.53484 25.3705 7.39913 25.1452 7.3077C24.9198 7.21628 24.6784 7.171 24.4352 7.17454C24.1921 7.17809 23.9521 7.23038 23.7295 7.32834C23.5069 7.42629 23.3062 7.56791 23.1394 7.74482C22.8148 8.08886 22.6371 8.54584 22.644 9.01875C22.6509 9.49166 22.8419 9.94327 23.1763 10.2777C23.5107 10.6121 23.9623 10.8031 24.4352 10.81C24.9082 10.8169 25.3651 10.6392 25.7092 10.3146Z" fill="#1476FF"/>
</g>
<defs>
<filter id="filter0_i_23_1955" x="0" y="0.541016" width="32.6325" height="33.3306" filterUnits="userSpaceOnUse" color-interpolation-filters="sRGB">
<feFlood flood-opacity="0" result="BackgroundImageFix"/>
<feBlend mode="normal" in="SourceGraphic" in2="BackgroundImageFix" result="shape"/>
<feColorMatrix in="SourceAlpha" type="matrix" values="0 0 0 0 0 0 0 0 0 0 0 0 0 0 0 0 0 0 127 0" result="hardAlpha"/>
<feOffset dy="0.698259"/>
<feGaussianBlur stdDeviation="1.30924"/>
<feComposite in2="hardAlpha" operator="arithmetic" k2="-1" k3="1"/>
<feColorMatrix type="matrix" values="0 0 0 0 0 0 0 0 0 0 0 0 0 0 0 0 0 0 0.2 0"/>
<feBlend mode="normal" in2="shape" result="effect1_innerShadow_23_1955"/>
</filter>
</defs>
</svg>
